<?xml version="1.0" encoding="UTF-8"?>
<svg id="_04-onblackgg" data-name="04-onblackgg" xmlns="http://www.w3.org/2000/svg" viewBox="0 0 1920 1080">
  <defs>
    <style>
      .cls-1 {
        fill: #000;
      }

      .cls-1, .cls-2, .cls-3 {
        stroke-width: 0px;
      }

      .cls-2 {
        fill: #fff;
      }

      .cls-3 {
        fill: #ff3131;
      }
    </style>
  </defs>
  <rect class="cls-1" width="5000" height="3000"/>
  <g>
    <path id="y" class="cls-2" d="M693.996,401.211c0,12.608-1.651,26.5-4.941,41.68-3.296,15.187-7.52,30.508-12.676,45.977s-10.742,30.508-16.758,45.117-11.602,27.5-16.758,38.672c-2.867,6.304-6.378,14.254-10.527,23.848-4.156,9.601-8.809,19.84-13.965,30.723-5.156,10.89-10.675,21.847-16.543,32.871-5.875,11.031-11.964,20.914-18.262,29.648-6.304,8.734-12.75,15.898-19.336,21.484-6.593,5.586-13.179,8.379-19.766,8.379-9.171,0-15.684-3.37-19.551-10.098-3.867-6.734-5.801-14.247-5.801-22.559,0-8.017,1.356-16.543,4.082-25.566,2.719-9.023,6.157-17.973,10.312-26.855,4.149-8.876,8.735-17.47,13.75-25.781,5.009-8.305,9.668-15.751,13.965-22.344-5.733-1.43-11.319-4.008-16.758-7.734-5.445-3.72-9.453-8.164-12.031-13.32-4.585-10.024-9.312-21.337-14.18-33.945-4.874-12.602-9.238-25.419-13.105-38.457-3.867-13.032-7.09-26.063-9.668-39.102-2.578-13.032-3.867-24.989-3.867-35.879,0-5.156.571-10.81,1.719-16.973,1.142-6.157,3.075-11.884,5.801-17.188,2.719-5.297,6.298-9.735,10.742-13.32,4.438-3.579,9.95-5.371,16.543-5.371,7.446,0,14.032,2.793,19.766,8.379,5.727,5.586,10.81,12.676,15.254,21.27,4.438,8.594,8.231,18.194,11.387,28.789,3.149,10.601,5.868,21.055,8.164,31.367,2.29,10.312,4.149,19.766,5.586,28.359,1.43,8.594,2.719,15.328,3.867,20.195,1.142-4.297,3.075-10.81,5.801-19.551,2.719-8.735,6.016-18.403,9.883-29.004,3.867-10.595,8.305-21.484,13.32-32.656,5.009-11.172,10.312-21.337,15.898-30.508,5.586-9.165,11.528-16.684,17.832-22.559,6.298-5.868,12.743-8.809,19.336-8.809,4.297,0,7.875,1.578,10.742,4.727,2.86,3.155,5.083,6.875,6.66,11.172,1.571,4.297,2.646,8.741,3.223,13.32.571,4.585.859,8.453.859,11.602Z"/>
    <path id="u" class="cls-2" d="M879.621,573.945c0,15.758-1.578,31.367-4.727,46.836-3.155,15.469-8.453,29.293-15.898,41.465-7.452,12.179-17.402,21.988-29.863,29.434s-28.003,11.172-46.621,11.172c-18.335,0-33.663-3.652-45.977-10.957-12.32-7.305-22.129-16.973-29.434-29.004s-12.461-25.634-15.469-40.82c-3.008-15.18-4.512-30.648-4.512-46.406,0-17.188,2.001-34.228,6.016-51.133.859-4.579,2.504-10.957,4.941-19.121,2.431-8.164,5.586-16.181,9.453-24.062,3.867-7.875,8.305-14.677,13.32-20.41,5.009-5.727,10.527-8.594,16.543-8.594,5.727,0,10.312,1.578,13.75,4.727,3.438,3.155,6.157,7.09,8.164,11.816,2.001,4.727,3.29,9.742,3.867,15.039.571,5.304.859,10.098.859,14.395,0,6.593-.503,13.038-1.504,19.336-1.007,6.304-2.081,12.608-3.223,18.906-1.148,8.594-2.222,17.188-3.223,25.781-1.007,8.594-1.504,17.188-1.504,25.781,0,4.297.215,9.098.645,14.395.43,5.304,1.504,10.387,3.223,15.254,1.719,4.874,4.149,8.956,7.305,12.246,3.149,3.297,7.587,4.941,13.32,4.941,7.446,0,13.388-2.001,17.832-6.016,4.438-4.008,7.734-9.023,9.883-15.039s3.505-12.461,4.082-19.336c.571-6.875.859-13.173.859-18.906,0-12.602-.859-24.989-2.578-37.168-1.719-12.172-3.296-24.56-4.727-37.168-.289-1.43-.43-3.438-.43-6.016,0-4.297.712-8.594,2.148-12.891,1.43-4.297,3.438-8.164,6.016-11.602s5.727-6.23,9.453-8.379c3.72-2.148,7.875-3.223,12.461-3.223,6.298,0,11.884,2.222,16.758,6.66,4.868,4.444,8.95,10.171,12.246,17.188,3.29,7.022,6.016,14.898,8.164,23.633,2.148,8.741,3.867,17.335,5.156,25.781,1.289,8.453,2.148,16.402,2.578,23.848.43,7.452.645,13.32.645,17.617Z"/>
    <path id="n" class="cls-2" d="M1027.862,708.867c-4.873,0-8.74-2.223-11.602-6.66-2.867-4.444-5.016-9.521-6.445-15.254-1.436-5.727-2.363-11.527-2.793-17.402-.43-5.868-.645-10.38-.645-13.535,0-8.594.498-17.188,1.504-25.781,1-8.594,2.148-17.188,3.438-25.781s2.432-17.188,3.438-25.781c1-8.594,1.504-17.188,1.504-25.781,0-3.438-.146-7.157-.43-11.172-.289-4.008-.934-7.802-1.934-11.387-1.006-3.579-2.652-6.513-4.941-8.809-2.295-2.29-5.303-3.438-9.023-3.438-2.578,0-5.444,2.081-8.594,6.23-3.154,4.156-6.089,8.882-8.808,14.18-2.726,5.304-5.015,10.601-6.875,15.898-1.866,5.304-2.793,9.238-2.793,11.816,0,6.304.067,12.676.215,19.121.141,6.445.215,12.965.215,19.551v24.922c-.289,5.156-.718,10.46-1.289,15.898-.577,5.445-1.437,10.742-2.578,15.898-.859,5.156-2.148,10.098-3.867,14.824s-3.941,8.883-6.66,12.461c-2.726,3.585-5.948,6.52-9.668,8.809-3.726,2.289-8.164,3.438-13.32,3.438-5.733,0-10.46-1.866-14.18-5.586-3.726-3.72-6.734-8.52-9.023-14.395-2.296-5.868-3.941-12.461-4.941-19.766-1.007-7.305-1.719-14.462-2.148-21.484-.43-7.016-.577-13.461-.43-19.336.141-5.868.215-10.527.215-13.965v-20.195c0-10.883-.215-21.625-.645-32.227-.43-10.595-.645-21.196-.645-31.797,0-5.727.067-13.032.215-21.914.141-8.876,1.215-17.543,3.223-25.996,2.001-8.446,5.297-15.684,9.883-21.699,4.579-6.016,11.313-9.023,20.195-9.023,4.008,0,7.587,1.289,10.742,3.867,3.149,2.578,5.942,5.733,8.379,9.453,2.431,3.726,4.438,7.734,6.016,12.031,1.571,4.297,2.793,8.023,3.652,11.172,2.86-4.008,6.23-7.875,10.098-11.602,3.867-3.72,8.232-7.016,13.105-9.883,4.868-2.86,10.312-5.156,16.328-6.875s12.891-2.578,20.625-2.578c14.609,0,25.996,3.511,34.16,10.527,8.164,7.022,14.18,15.757,18.047,26.211,3.867,10.46,6.23,21.699,7.09,33.73s1.289,22.921,1.289,32.656c0,4.874-.43,12.105-1.289,21.699-.859,9.601-2.223,20.195-4.082,31.797-1.865,11.602-4.371,23.492-7.52,35.664-3.154,12.179-6.875,23.277-11.172,33.301-4.297,10.03-9.385,18.194-15.254,24.492-5.875,6.298-12.535,9.453-19.98,9.453Z"/>
    <path id="i" class="cls-2" d="M1185.558,543.008v12.676c0,4.444-.147,8.667-.43,12.676-.289,4.874-.43,11.387-.43,19.551s-.289,16.973-.859,26.426c-.577,9.453-1.504,19.054-2.793,28.789-1.289,9.742-3.37,18.624-6.23,26.641-2.867,8.023-6.66,14.542-11.387,19.551-4.727,5.016-10.675,7.66-17.832,7.949-5.445.282-10.03-1.859-13.75-6.445-3.727-4.579-6.808-10.527-9.238-17.832-2.438-7.305-4.229-15.469-5.371-24.492-1.148-9.023-2.008-17.758-2.578-26.211-.577-8.446-.859-16.254-.859-23.418v-35.449c0-8.446.282-17.543.859-27.285.57-9.735,1.645-19.618,3.223-29.648,1.571-10.024,3.867-19.188,6.875-27.5,3.008-8.305,6.942-15.039,11.816-20.195,4.867-5.156,11.024-7.734,18.477-7.734,7.734,0,13.603,3.867,17.617,11.602,4.008,7.734,7.016,16.758,9.023,27.07,2.001,10.312,3.148,20.558,3.438,30.723.282,10.171.43,17.691.43,22.559Z"/>
    <path id="q" class="cls-2" d="M1408.566,644.844c2.86,4.015,6.016,9.098,9.453,15.254,3.438,6.163,6.083,12.461,7.949,18.906,1.859,6.445,2.646,12.535,2.363,18.262-.289,5.727-2.726,10.312-7.305,13.75-3.438,2.578-7.164,3.652-11.172,3.223-4.015-.43-8.097-1.719-12.246-3.867-4.156-2.148-8.379-5.016-12.676-8.594-4.297-3.585-8.453-7.52-12.461-11.816-7.734,6.593-16.402,11.742-25.996,15.469-9.601,3.72-20.27,5.586-32.012,5.586-17.477,0-32.656-4.371-45.547-13.105s-23.565-20.478-32.012-35.234c-8.453-14.75-14.757-31.864-18.906-51.348-4.156-19.477-6.23-39.961-6.23-61.445,0-20.048,2.216-40.391,6.66-61.016,4.438-20.625,11.239-39.243,20.41-55.859,9.164-16.61,20.766-30.219,34.805-40.82,14.032-10.595,30.79-15.898,50.273-15.898,18.906,0,34.73,5.089,47.48,15.254,12.743,10.171,22.914,23.351,30.508,39.531,7.587,16.187,13.031,34.308,16.328,54.355,3.29,20.054,4.941,40.108,4.941,60.156,0,17.765-1.437,34.737-4.297,50.918-2.867,16.188-7.164,31.152-12.891,44.902l2.578,3.438ZM1326.066,627.227c-2.867-4.867-5.304-9.883-7.305-15.039-2.008-5.156-3.297-10.098-3.867-14.824-.577-4.727-.215-9.164,1.074-13.32,1.289-4.149,3.935-7.661,7.949-10.527,3.148-2.29,6.728-3.149,10.742-2.578,4.008.577,8.305,2.296,12.891,5.156.57-5.727,1-11.313,1.289-16.758.282-5.438.43-10.165.43-14.18,0-7.734-.504-15.898-1.504-24.492-1.007-8.594-2.652-16.543-4.941-23.848-2.296-7.305-5.304-13.388-9.023-18.262-3.727-4.868-8.453-7.305-14.18-7.305-5.445,0-10.098,2.148-13.965,6.445s-7.09,9.957-9.668,16.973c-2.578,7.022-4.444,14.898-5.586,23.633-1.148,8.741-1.719,17.55-1.719,26.426,0,10.03.645,20.054,1.934,30.078,1.289,10.03,3.223,19.054,5.801,27.07,2.578,8.023,5.801,14.469,9.668,19.336,3.867,4.874,8.52,7.305,13.965,7.305,2.289,0,4.297-.43,6.016-1.289Z"/>
    <path id="dot" class="cls-3" d="M1191.642,420.467c-3.971,4.502-8.716,7.452-14.24,8.858-5.53,1.413-11.425,1.782-17.685,1.107-6.266-.668-12.284-2.268-18.054-4.787-5.777-2.526-10.586-5.483-14.441-8.883-6.429-5.672-10.631-12.23-12.614-19.695-1.989-7.458-.002-14.567,5.949-21.313,4.251-4.818,9.208-8.01,14.878-9.581,5.664-1.564,11.327-2.004,16.99-1.292,5.656.705,11.297,2.401,16.934,5.085,5.624,2.684,10.531,5.863,14.71,9.549,6.099,5.38,10.447,11.786,13.039,19.213,2.585,7.421.763,14.676-5.467,21.738Z"/>
  </g>
</svg>